<svg width="544" height="394" viewBox="0 0 544 394" fill="none" xmlns="http://www.w3.org/2000/svg">
<path d="M376.209 65.4715C381.292 69.0138 385.696 74.0679 387.114 80.197C388.419 87.8803 387.377 94.5841 383.093 101.162C378.993 106.492 373.255 109.95 366.587 110.928C359.935 111.615 353.39 110.249 347.984 106.207C345.786 104.328 343.903 102.387 342.21 100.044C342.21 99.6218 342.21 99.1992 342.21 98.7639C336.906 100.059 336.906 100.059 332.588 103.246C330.782 106.335 330.915 109.804 331.667 113.21C332.168 115.03 332.696 116.84 333.229 118.651C336.667 131.161 334.366 141.015 330.263 153.024C324.227 170.782 327.239 186.884 332.588 204.403C336.187 204.403 339.785 204.403 343.493 204.403C344.128 202.502 344.128 202.502 344.776 200.562C345.443 199.154 346.126 197.754 346.821 196.36C351.55 186.488 354.345 176.075 356.323 165.349C355.839 165.175 355.355 165.002 354.857 164.823C349.398 162.456 347.037 157.082 344.776 151.904C342.819 146.045 343.589 138.622 346.272 133.154C349.839 127.359 354.709 122.739 361.398 120.821C368.343 119.324 375.901 120.065 381.982 123.733C387.511 127.43 390.921 133.002 392.585 139.384C393.788 145.874 392.713 152.343 389.332 158.058C385.233 163.629 379.698 167.384 372.962 169.03C369.459 169.327 366.19 169.302 362.738 168.55C362.658 169.157 362.579 169.765 362.497 170.39C360.684 182.815 356.253 194.541 350.55 205.684C351.247 206.149 351.247 206.149 351.958 206.624C355.475 209.058 358.34 211.301 360.736 214.862C361.472 216.026 361.472 216.026 362.738 217.208C377.285 211.709 389.582 201.643 396.218 187.396C398.761 181.555 400.447 175.516 402.144 169.388C404.612 160.828 408.001 151.094 416.004 146.242C422.797 142.749 429.773 141.794 437.308 143.378C444.421 145.805 450.396 150.268 454.175 156.815C458.521 165.794 458.985 175.75 455.754 185.196C452.828 191.941 448.642 197.742 444.272 203.62C442.647 205.808 441.119 208.038 439.636 210.325C435.393 216.758 430.644 222.859 424.962 228.092C425.333 228.501 425.703 228.911 426.085 229.332C430.457 235.272 431.297 241.34 430.736 248.58C429.045 255.635 425.122 261.054 419.189 265.226C412.956 268.375 406.892 269.552 399.914 267.989C392.633 265.516 387.802 261.635 383.907 254.982C381.049 249 381.124 241.897 382.945 235.615C385.298 229.433 389.549 224.68 395.454 221.69C401.569 218.964 408.534 218.736 414.819 221.009C415.852 221.44 416.881 221.879 417.906 222.33C418.541 222.541 419.176 222.752 419.83 222.97C427.166 216.3 432.474 207.971 438.022 199.831C439.109 198.239 440.21 196.659 441.33 195.09C447.214 186.829 451.94 178.404 450.261 167.91C448.731 161.629 445.829 156.152 440.358 152.544C435.57 149.888 429.858 149.009 424.539 150.443C418.86 152.563 415.672 155.587 412.774 160.867C412.028 162.595 411.447 164.352 410.89 166.149C410.731 166.64 410.572 167.13 410.409 167.636C409.372 170.87 408.407 174.124 407.448 177.381C404.065 188.851 399.532 197.881 391.605 206.964C391.096 207.553 391.096 207.553 390.577 208.155C384.533 214.651 376.876 219.096 368.822 222.612C366.574 223.541 366.574 223.541 364.662 224.891C364.501 226.531 364.501 226.531 364.662 228.412C364.781 232.691 363.901 236.288 362.207 240.204C362.027 242.37 363.228 243.516 364.462 245.258C368.047 250.507 370.878 256.11 373.773 261.757C377.886 269.738 381.463 275.302 390.254 278.468C395.074 279.889 399.846 280.04 404.379 277.83C410.775 275.727 417.743 277.842 423.996 279.441C430.425 281.06 435.445 281.236 441.641 278.671C441.535 278.261 441.429 277.852 441.32 277.43C440.081 269.855 441.778 263.215 446.131 256.903C449.73 252.787 453.909 250.54 458.961 248.58C458.752 248.223 458.543 247.866 458.327 247.499C453.457 239.011 452.071 231.534 454.483 221.924C456.121 216.019 459.13 210.727 462.118 205.411C462.479 204.748 462.839 204.086 463.211 203.403C463.537 202.834 463.862 202.265 464.198 201.68C464.937 199.256 464.22 197.826 463.451 195.44C462.773 187.79 463.493 181.457 468.062 175.072C472.442 169.875 478.627 166.494 485.415 165.766C493.328 165.553 499.458 167.673 505.276 173.056C510.522 178.534 512.424 184.683 512.342 192.134C511.861 199.211 508.458 204.788 503.429 209.635C497.239 214.503 490.284 215.179 482.696 214.647C477.548 213.577 473.772 211.03 469.866 207.604C463.38 215.474 459.936 225.711 460.885 235.775C461.427 238.138 462.247 240.078 463.451 242.177C463.748 242.706 464.045 243.235 464.351 243.78C466.411 246.912 468.017 248.213 471.711 249.02C472.371 249.143 473.032 249.266 473.713 249.392C479.924 250.9 484.144 256.052 487.615 261.079C490.665 266.738 490.509 273.881 489.379 280.079C487.25 286.88 481.837 292.023 475.64 295.317C471.36 297.16 466.746 296.711 462.168 296.597C462.182 297.064 462.195 297.531 462.209 298.011C462.864 324.257 462.864 324.257 454.35 333.611C450.261 337.326 445.501 338.981 440.238 340.334C439.811 340.444 439.384 340.553 438.945 340.667C432.633 342.167 428.079 341.128 422.627 337.828C421.247 336.914 419.888 335.981 418.547 335.012C418.205 335.39 417.863 335.769 417.51 336.16C412.95 340.986 408.161 344.336 401.405 344.768C393.693 344.966 387.492 344.051 381.386 338.918C376.422 333.889 373.778 327.781 373.586 320.736C373.918 313.482 376.231 307.59 381.341 302.359C387.226 297.599 393.635 295.314 401.227 295.957C407.909 297.108 413.949 299.99 418.201 305.381C421.941 310.912 422.488 315.242 422.156 321.767C421.845 326.428 421.845 326.428 423.82 330.467C425.689 331.654 427.345 332.421 429.453 333.091C430.061 333.353 430.67 333.614 431.297 333.884C433.865 334.509 435.866 334.057 438.353 333.371C438.807 333.251 439.26 333.131 439.727 333.007C444.494 331.668 448.606 329.765 451.263 325.408C454.556 318.007 455.296 310.579 455.513 302.56C455.538 301.797 455.563 301.035 455.588 300.25C455.648 298.392 455.703 296.535 455.754 294.677C454.884 294.427 454.884 294.427 453.997 294.171C451.946 293.412 450.814 292.691 449.218 291.235C448.799 290.861 448.38 290.486 447.948 290.1C446.781 288.923 445.809 287.702 444.848 286.354C444.465 286.446 444.083 286.538 443.688 286.634C434.611 288.572 426.546 287.862 417.633 285.572C411.849 284.076 411.849 284.076 406.126 285.376C403.267 286.574 400.964 286.672 397.899 286.634C397.094 286.626 397.094 286.626 396.272 286.619C388.078 286.403 380.974 283.193 374.846 277.79C372.005 274.791 370.394 271.208 368.649 267.522C367.072 264.206 365.316 260.996 363.54 257.783C363.245 257.245 362.95 256.706 362.646 256.152C361.398 253.896 360.143 251.688 358.678 249.565C357.606 247.939 357.606 247.939 357.606 246.659C356.965 247.111 356.965 247.111 356.31 247.572C349.57 252.116 342.913 254.227 334.77 252.761C327.985 251.003 322.476 246.643 318.563 240.889C315.26 235.123 314.935 228.003 316.353 221.61C318.003 216.648 320.899 212.299 324.89 208.885C325.313 208.885 325.737 208.885 326.173 208.885C326.05 208.467 325.928 208.049 325.802 207.619C325.225 205.641 324.656 203.662 324.088 201.682C323.879 200.96 323.669 200.237 323.454 199.493C322.318 195.482 321.416 191.553 320.808 187.431C319.893 181.352 319.893 181.352 315.829 176.873C313.958 175.798 313.958 175.798 312.06 174.952C311.557 174.668 311.053 174.384 310.534 174.092C303.163 170.407 294.429 172.402 286.721 173.832C286.01 173.963 285.298 174.093 284.564 174.228C279.208 175.298 274.139 176.655 270.642 181.139C265.692 189.189 264.016 198.987 261.987 208.077C260.403 215.121 258.794 222.137 253.164 227.132C252.469 227.924 252.469 227.924 251.76 228.732C251.967 230.551 251.967 230.551 252.402 232.574C252.989 240.513 251.942 247.471 246.659 253.679C241.238 259.058 235.696 261.53 228.106 261.664C220.916 261.604 215.202 259.403 210.064 254.342C204.912 248.39 203.242 242.598 203.421 234.797C204.09 228.273 207.202 222.854 211.863 218.323C217.923 213.523 224.333 212.209 231.874 212.726C238.277 213.891 242.902 217.003 247.27 221.69C250.243 220.504 250.97 218.753 252.285 215.956C253.686 212.355 254.417 208.616 255.208 204.843C256.518 198.903 257.917 193.022 259.819 187.237C260.066 186.46 260.066 186.46 260.317 185.667C262.411 179.535 266.149 174.015 271.647 170.471C283.165 165.288 299.971 162.244 312.06 166.629C314.718 167.989 317.251 169.492 319.758 171.111C316.431 160.331 312.581 150.577 306.071 141.31C305.155 139.962 304.405 138.653 303.721 137.178C303.127 137.502 303.127 137.502 302.521 137.833C295.201 141.681 288.488 142.82 280.477 140.397C273.925 137.968 269.651 133.983 266.269 127.9C263.659 121.905 263.373 114.062 265.713 107.927C269.063 101.031 273.5 96.5255 280.627 93.642C286.266 91.7212 294.22 92.3874 299.599 94.7174C306.419 98.4224 310.375 103.595 312.702 110.928C314.16 116.088 313.825 122.455 311.216 127.184C310.627 128.152 310.018 129.107 309.384 130.045C308.693 131.433 308.693 131.433 309.264 133.002C310.173 134.685 311.189 136.082 312.381 137.578C316.15 142.605 318.859 148.233 321.683 153.824C326.892 141.571 329.203 132.292 325.665 119.181C323.965 112.759 322.645 106.206 325.922 100.022C328.804 95.958 332.343 93.7234 337.078 92.3615C337.713 92.3615 338.348 92.3615 339.003 92.3615C338.973 91.6039 338.943 90.8462 338.913 90.0657C338.756 84.3713 338.655 79.5215 341.569 74.4348C341.926 73.7746 342.283 73.1143 342.651 72.4341C350.934 62.1571 364.488 58.5572 376.209 65.4715ZM349.908 76.3556C347.318 80.4274 346.16 84.3449 346.701 89.1603C348.311 94.7801 350.747 98.2899 355.744 101.315C359.712 103.429 364.795 103.292 369.045 102.093C373.861 99.944 376.765 96.4325 379.056 91.7613C380.035 86.4404 379.712 81.7011 376.851 76.9958C373.017 72.4884 368.89 70.3366 363.059 69.7131C357.584 70.2985 353.57 72.1793 349.908 76.3556ZM355.04 134.617C352.549 138.468 351.461 142.187 351.833 146.782C353.314 152.037 355.814 156.339 360.573 159.186C364.611 161.127 368.923 161.688 373.285 160.407C378.306 158.304 381.666 155.48 383.96 150.503C385.333 146.303 385.156 142.047 383.546 137.938C381.077 133.2 377.701 130.396 372.666 128.635C365.819 126.824 359.594 129.434 355.04 134.617ZM474.708 180.007C471.69 184.106 470.593 188.699 471.325 193.709C472.687 198.767 475.447 202.316 479.945 204.966C484.518 207.201 488.804 207.465 493.667 205.886C498.07 203.977 500.77 200.602 503.184 196.56C504.509 191.892 504.586 187.499 502.542 183.035C500.361 179.215 497.241 176.19 493.053 174.615C485.715 173.001 479.784 174.556 474.708 180.007ZM214.128 228.152C211.822 231.437 211.08 235.199 211.505 239.171C212.576 244.791 215.705 248.527 220.328 251.781C224.331 253.89 228.144 254.085 232.516 253.061C237.344 251.452 240.919 248.249 243.341 243.818C244.803 239.195 245.18 235.224 243.421 230.653C241.001 226.543 237.77 223.166 233.247 221.399C225.493 219.422 219.004 222.029 214.128 228.152ZM394.93 232.374C391.566 235.85 389.809 239.453 389.623 244.325C389.969 249.477 391.968 253.031 395.734 256.502C399.096 259.431 402.526 260.656 407 260.744C412.109 260.343 415.726 258.123 419.058 254.299C422.709 249.589 422.843 245.509 422.396 239.616C421.31 235.08 417.74 232.013 414.057 229.372C407.16 226.189 400.477 227.23 394.93 232.374ZM385.831 310.042C385.368 310.557 384.905 311.072 384.428 311.603C381.716 315.43 381.393 319.567 381.982 324.128C383.607 329.316 386.838 333.121 391.612 335.712C396.1 337.613 400.414 337.375 404.923 335.719C409.224 333.599 412.04 330.315 414.057 326.048C415.434 321.414 414.933 317.225 412.979 312.833C410.782 308.914 407.616 306.339 403.442 304.703C396.633 302.874 390.403 304.697 385.831 310.042Z" fill="#9D9D9D"/>
<path d="M317.994 3.88863C324.008 8.66281 327.779 14.1735 328.739 21.9353C328.823 23.6597 328.802 25.3293 328.739 27.0572C336.802 28.9749 343.125 28.375 351.008 25.8618C356.662 24.1216 363.576 23.1062 369.16 25.6242C372.707 27.8291 375.822 30.6607 378.903 33.4621C383.779 37.8893 387.879 39.3554 394.364 40.4174C406.179 42.3552 414.969 46.7584 424.723 53.365C432.945 58.9056 441.471 64.0218 450.238 68.6552C450.636 68.8654 451.033 69.0755 451.442 69.2921C453.357 70.3012 455.275 71.2984 457.203 72.2823C463.787 75.7024 470.355 79.6361 474.838 85.679C475.265 86.2396 475.265 86.2396 475.701 86.8115C480.3 93.0614 483.71 100.111 485.262 107.727C485.823 107.671 485.823 107.671 486.395 107.615C492.78 107.264 497.93 109.497 502.823 113.529C507.34 117.849 510.31 123.712 510.467 129.976C510.527 136.347 509.333 141.08 506.431 146.782C506.874 147.356 507.316 147.931 507.772 148.522C519.538 164.026 526.971 180.145 525.676 199.921C525.209 203.233 524.155 206.356 523.11 209.525C522.516 211.56 521.951 213.604 521.386 215.647C521.248 216.128 521.111 216.608 520.969 217.104C520.84 217.561 520.71 218.019 520.576 218.491C520.404 219.093 520.404 219.093 520.229 219.708C517.502 230.91 518.821 243.346 521.827 254.342C522.316 254.436 522.804 254.53 523.308 254.627C530.062 256.091 535.466 259.101 539.789 264.585C543.795 271.289 545.003 278.777 543.154 286.436C540.469 293.318 536.022 298.625 529.274 301.717C524.493 303.553 520.443 303.81 515.412 303C515.395 303.659 515.379 304.319 515.362 304.998C514.861 319.092 510.779 336.743 501.084 347.569C499.824 349.044 499.824 349.044 500.094 350.975C500.661 352.951 501.296 354.882 501.981 356.82C504.434 364.673 503.64 372.336 499.856 379.628C496.175 385.726 491.421 389.786 484.904 392.736C477.506 394.537 467.795 394.682 460.845 391.393C454.864 387.721 451.291 383.373 448.056 377.267C447.457 377.307 447.457 377.307 446.846 377.346C425.735 378.657 408.635 375.435 390.246 364.806C373.672 355.227 356.582 350.211 337.72 347.176C337.68 347.995 337.64 348.814 337.6 349.657C336.961 355.144 334.266 359.549 330.27 363.295C323.581 368.397 317.038 369.525 308.853 368.944C301.632 367.38 296.028 363.016 292.054 356.885C288.971 351.341 288.352 345.015 289.608 338.853C290.515 336.081 291.652 333.444 293.009 330.863C293.643 329.231 293.643 329.231 292.786 327.671C292.425 327.149 292.064 326.627 291.693 326.088C289.222 322.263 287.88 319.387 288.538 314.799C290.012 309.449 294.191 303.699 298.99 300.839C301.981 299.402 304.165 299.079 307.48 299.096C308.195 299.098 308.91 299.1 309.647 299.102C310.391 299.107 311.134 299.113 311.9 299.118C312.653 299.121 313.407 299.124 314.183 299.127C316.041 299.135 317.9 299.145 319.758 299.158C319.551 298.633 319.345 298.109 319.132 297.568C318.39 295.023 318.229 292.663 318.235 290.035C318.236 289.555 318.237 289.075 318.238 288.58C318.396 281.406 321.657 275.72 326.784 270.778C331.924 266.588 337.895 265.001 344.415 265.306C351.887 266.062 357.687 269.211 362.577 274.869C366.512 280.216 368.022 286.847 367.228 293.396C366.05 299.754 362.909 305.649 357.796 309.697C351.322 314.027 344.684 314.832 337.078 313.884C332.501 312.773 328.354 310.534 325.251 306.961C324.437 306.268 324.437 306.268 323.607 305.561C322.582 305.682 321.558 305.814 320.543 305.998C318.836 306.241 317.169 306.282 315.446 306.314C314.783 306.329 314.12 306.344 313.437 306.36C312.062 306.387 310.688 306.407 309.313 306.42C305.448 306.523 302.851 306.683 299.872 309.402C297.623 312.109 296.042 314.651 295.983 318.205C296.674 320.314 297.502 322.194 298.589 324.128C299.045 323.944 299.502 323.761 299.972 323.572C300.875 323.213 300.875 323.213 301.796 322.847C302.64 322.508 302.64 322.508 303.5 322.162C310.422 319.6 317.39 319.179 324.249 322.207C330.087 325.288 334.806 330.024 337.078 336.292C337.418 337.807 337.59 339.222 337.72 340.774C338.424 340.787 338.424 340.787 339.143 340.801C360.074 341.721 379.513 349.765 397.378 360.181C413.268 369.409 428.142 370.676 446.131 370.225C446.102 369.521 446.072 368.817 446.041 368.091C445.772 359.05 447.455 351.929 453.852 345.153C460.541 338.853 467.844 336.568 476.958 336.772C482.584 337.128 486.919 339.165 491.677 342.054C492.262 342.404 492.846 342.754 493.449 343.115C493.922 343.399 494.396 343.682 494.884 343.975C502.629 331.865 507.152 319.32 508.356 304.92C508.42 304.227 508.485 303.534 508.551 302.82C508.54 301.023 508.54 301.023 507.228 300.021C506.727 299.75 506.226 299.478 505.709 299.198C499.989 295.727 496.741 290.619 495.127 284.105C493.999 276.712 495.552 270.425 499.548 264.153C502.871 259.698 507.478 256.26 513.001 255.237C513.585 255.153 514.169 255.069 514.77 254.982C514.504 253.995 514.504 253.995 514.232 252.989C512.884 247.893 511.736 242.988 511.563 237.695C511.537 237.007 511.512 236.319 511.485 235.61C511.269 224.251 514.067 214.22 517.374 203.478C520.768 191.582 517.88 179.293 512.205 168.55C509.116 163.07 505.72 157.056 501.299 152.544C499.484 152.544 498.279 153.319 496.648 154.104C494.094 155.275 491.944 156.205 489.111 156.385C488.661 156.425 488.211 156.465 487.748 156.505C481.169 156.842 474.858 154.926 469.864 150.601C464.549 145.38 461.536 139.557 461.246 131.976C461.527 126.229 463.289 121.321 466.659 116.691C467.016 116.149 467.373 115.608 467.741 115.05C470.057 112.613 472.843 110.856 475.64 109.008C468.796 101.443 461.106 95.9382 452.546 90.4408C451.596 89.8176 450.646 89.1941 449.697 88.5701C439.482 81.9373 427.44 75.6573 415.019 75.5953C413.779 75.5816 413.779 75.5816 412.513 75.5678C409.681 75.749 407.906 76.116 405.853 78.1112C403.781 81.9665 404.788 87.4224 405.918 91.4812C406.572 93.5586 407.283 94.7612 408.925 96.2029C409.182 95.9553 409.439 95.7077 409.704 95.4526C415.552 90.1057 421.65 88.8382 429.377 88.9852C435.478 89.2672 440.549 91.9458 444.848 96.2029C449.803 102.316 451.966 108.841 451.263 116.691C449.68 124.376 446.207 130.116 439.716 134.617C433.431 137.778 426.674 138.94 419.79 137.098C412.673 134.655 407.814 130.649 404.189 124.036C401.712 118.288 401.558 111.149 403.352 105.166C403.805 103.516 403.906 102.873 403.232 101.28C402.397 99.9748 401.499 98.7345 400.586 97.4834C397.467 91.374 396.202 83.8154 398.14 77.1558C399.663 73.1092 402.363 71.0592 406.15 69.219C408.832 68.237 411.468 68.2664 414.297 68.3126C414.917 68.32 415.536 68.3275 416.174 68.3352C433.849 68.8682 450.036 78.9972 463.807 89.2728C466.423 91.2202 469.11 93.0655 471.791 94.9224C466.791 86.7573 460.865 82.6617 452.546 78.2763C440.502 71.8813 428.847 65.142 417.545 57.5085C409.767 52.2843 402.723 49.1564 393.391 47.7799C384.66 46.4643 379.266 43.716 372.776 37.5636C369.981 35.025 366.986 32.7386 363.379 31.5389C363.591 32.1331 363.803 32.7273 364.021 33.3396C365.525 38.6953 365.049 44.4185 362.738 49.4656C361.425 51.5765 359.932 53.4024 358.247 55.2277C357.893 55.6156 357.54 56.0035 357.175 56.4031C345.862 67.4446 327.92 68.5915 313.143 70.5934C298.414 72.5921 284.888 74.9743 273.571 85.3189C273.188 85.6572 272.805 85.9956 272.411 86.3443C266.7 91.6885 262.3 98.5539 257.774 104.886C257.371 105.443 256.968 105.999 256.553 106.572C256.18 107.099 255.808 107.627 255.424 108.17C255.088 108.64 254.753 109.11 254.407 109.594C253.481 111.051 253.481 111.051 253.685 113.489C254.471 114.57 255.257 115.65 256.05 116.726C259.698 122.121 259.436 128.999 258.817 135.257C257.674 140.833 254.048 145.76 249.608 149.25C243.277 153.319 236.449 154.691 229.068 153.424C222.704 151.817 217.628 148.321 213.913 142.94C211.999 139.511 210.323 136.018 210.064 132.056C210.024 131.654 209.984 131.252 209.943 130.838C209.55 124.052 212.119 117.776 216.258 112.496C220.487 108.086 225.756 105.302 231.907 104.951C232.818 104.933 233.729 104.925 234.641 104.926C235.354 104.925 235.354 104.925 236.081 104.924C239.982 104.998 243.188 105.837 246.629 107.727C249.161 104.603 251.537 101.39 253.83 98.0883C265.104 81.8776 277.851 69.2332 298.033 65.479C304.412 64.3562 310.814 63.4528 317.237 62.6234C337.7 60.1274 337.7 60.1274 354.398 48.8253C356.888 45.2224 358.04 41.3293 357.353 36.9784C357.048 35.5783 356.71 34.1989 356.323 32.8194C353.695 32.8194 351.999 33.3197 349.507 34.0999C342.146 36.2262 334.342 35.8531 326.814 34.7401C326.55 35.1503 326.285 35.5604 326.013 35.9831C321.417 42.8535 316.479 47.1371 308.211 48.8253C301.337 49.4643 294.656 48.3179 289.007 44.1836C284.402 40.2195 280.53 35.1388 279.84 28.9498C279.289 21.0032 280.23 14.7165 285.358 8.37029C294.045 -1.30028 306.86 -2.30862 317.994 3.88863ZM290.009 15.4929C287.765 19.7137 286.792 24.0582 288.17 28.6928C290.219 34.1201 292.834 37.1372 297.948 39.862C302.399 41.343 307.441 41.1517 311.699 39.1817C315.79 36.8223 318.641 33.6475 320.094 29.123C321.148 24.2088 320.714 20.1106 318.225 15.7205C315.178 11.3888 311.468 8.92502 306.287 7.8501C299.832 7.04487 293.944 10.6358 290.009 15.4929ZM221.914 118.629C218.67 122.966 217.628 127.328 218.403 132.696C219.972 137.857 222.681 141.499 227.384 144.221C231.343 146.058 235.856 146.26 240.013 144.964C244.786 142.807 248.35 139.498 250.437 134.657C251.867 130.091 251.494 126.167 249.36 121.9C246.666 117.333 243.418 114.598 238.279 113.117C232.029 111.803 226.154 113.916 221.914 118.629ZM473.354 121.19C470.122 125.617 469.213 129.824 469.866 135.257C470.826 139.775 473.284 143.202 477.045 145.851C481.649 148.477 486.23 148.99 491.366 147.637C496.194 145.752 499.499 142.585 501.58 137.858C503.139 133.419 503.005 129.595 501.364 125.166C499.149 120.674 495.71 117.753 491.035 116.05C484.581 114.231 477.806 116.159 473.354 121.19ZM506.03 269.067C503.244 273.411 502.76 277.425 503.224 282.512C504.135 286.655 506.189 290.067 509.779 292.401C514.453 295.052 518.473 296.106 523.849 295.044C528.399 293.578 532.103 290.469 534.296 286.234C536.397 281.615 536.461 277.212 534.724 272.443C532.624 268.134 529.31 265.318 525.034 263.305C518 261.226 510.659 263.208 506.03 269.067ZM330.383 278.791C327.566 282.249 326.404 285.483 325.932 289.875C326.519 295.339 328.404 299.345 332.588 303C336.672 305.587 340.59 306.734 345.418 306.201C349.399 305.118 352.368 303.655 355.04 300.439C355.503 299.924 355.966 299.409 356.443 298.878C359.286 294.866 359.404 290.485 358.889 285.713C358.28 283.806 357.437 282.249 356.323 280.591C355.966 280.024 355.608 279.456 355.24 278.871C352.017 275.654 347.71 273.488 343.132 273.349C337.912 273.44 334.008 275.008 330.383 278.791Z" fill="#9D9D9D"/>
<path d="M134.26 22.0704C139.484 26.3724 142.639 31.2959 143.99 37.9413C144.643 46.4819 142.53 52.4263 137.217 59.0316C133.397 63.2648 127.807 65.8697 122.115 66.2418C114.014 66.3493 108.583 64.9438 102.294 59.7094C100.61 57.8287 100.61 57.8287 99.7278 56.5082C95.3096 57.405 91.3595 58.9184 87.3391 60.9098C86.9099 61.1194 86.4807 61.3291 86.0385 61.545C81.8844 63.6594 78.8115 66.232 75.9526 69.9532C68.5922 79.0895 61.0084 85.0966 50.1888 89.7252C30.6 98.2999 17.4295 120.206 9.68143 139.351C6.41449 149.043 6.98351 161.215 10.5134 170.803C12.3279 174.247 15.2906 175.887 18.6272 177.743C20.3478 178.905 20.8434 179.402 21.4663 181.355C21.6943 182.974 21.8767 184.57 22.0276 186.196C22.8893 193.878 25.0432 200.432 31.1763 205.546C35.6798 208.739 40.393 210.227 45.8428 210.805C45.5253 209.855 45.5253 209.855 45.2013 208.885C44.6683 200.792 45.0713 193.557 50.456 187.017C55.4982 181.886 62.163 178.768 69.4175 178.554C70.3282 178.606 71.2379 178.686 72.1438 178.794C72.6019 178.846 73.06 178.899 73.532 178.954C80.53 180.138 86.0053 183.999 90.1055 189.678C93.7475 195.439 94.8698 201.905 93.6562 208.612C92.0595 214.619 88.9694 220.153 83.6906 223.61C76.7792 227.48 69.5788 228.81 61.7522 226.969C56.9428 225.095 53.1536 222.272 49.6917 218.488C49.6917 218.066 49.6917 217.643 49.6917 217.208C49.0401 217.238 48.3885 217.267 47.7172 217.298C38.169 217.604 31.0945 215.429 23.9119 208.887C18.0767 202.876 15.9485 196.112 15.1797 187.987C15.0193 186.564 14.8575 185.276 14.4099 183.915C12.8608 182.557 12.8608 182.557 11.2025 181.995C10.8044 196.318 12.9459 210.067 23.1127 220.828C41.5919 239.598 69.724 241.552 94.5959 242.817C94.5843 242.4 94.5726 241.982 94.5606 241.552C94.4286 233.384 97.2559 227 102.858 221.049C108.469 215.799 115.324 213.111 122.982 213.246C123.435 213.247 123.888 213.247 124.355 213.248C126.362 213.265 127.961 213.369 129.878 214.007C125.969 206.906 120.587 202.224 114.362 197.24C107.547 191.752 101.042 185.663 95.3025 179.061C94.0107 177.578 92.6825 176.134 91.3415 174.695C88.7782 171.941 86.3021 169.152 83.9311 166.229C76.6928 156.637 76.6928 156.637 66.3704 151.263C66.4233 151.871 66.4763 152.478 66.5308 153.104C66.4965 158.761 63.2334 164.027 59.314 167.91C53.2624 172.51 47.2013 174.751 39.5532 174.177C33.9034 173.33 27.8835 171.015 24.0322 166.629C19.4187 160.272 17.1189 154.308 17.7527 146.367C18.7977 140.128 21.7696 134.157 26.8162 130.256C32.932 126.052 38.9282 124.417 46.3314 125.249C52.9224 126.534 58.4158 129.453 62.3837 134.912C64.1767 137.73 65.5492 140.173 65.7289 143.581C66.4963 143.752 67.2637 143.924 68.0543 144.101C70.4799 144.643 72.5 145.658 74.7098 146.782C74.8052 143.923 74.8749 141.064 74.9212 138.204C74.9405 137.232 74.9667 136.26 75.0001 135.289C75.047 133.888 75.0687 132.489 75.0856 131.088C75.1159 129.826 75.1159 129.826 75.1467 128.538C74.5431 125.438 73.3976 124.891 70.8608 123.093C66.5689 117.317 64.6813 111.196 65.2228 104.011C66.3198 96.7183 69.5752 91.2094 75.3512 86.5993C82.1081 82.4562 89.6676 81.5205 97.4099 83.2406C100.518 84.3199 103.103 85.5685 105.501 87.8798C108.261 86.8434 110.858 85.5371 113.48 84.1985C125.082 78.3707 136.003 75.0851 148.906 73.5192C154.108 72.8536 158.914 71.6448 163.877 69.9532C163.771 69.1345 163.665 68.3158 163.556 67.4722C162.784 60.0874 163.08 52.9753 167.565 46.6645C172.02 41.3952 176.912 38.0387 183.763 36.6608C191.604 36.0641 197.934 37.7615 204.29 42.4229C208.782 46.4256 211.72 52.263 212.164 58.2288C212.425 65.9786 211.227 71.7059 206.175 77.8761C201.613 82.6199 195.753 85.3295 189.194 85.5058C181.706 85.5791 175.965 83.854 170.452 78.4763C169.976 77.9878 169.499 77.4992 169.008 76.9958C167.695 76.1543 167.695 76.1543 166.077 76.8807C165.324 77.1564 164.572 77.432 163.796 77.716C158.842 79.4117 153.805 80.19 148.637 80.924C140.585 82.0691 132.913 83.3885 125.387 86.5993C124.9 86.807 124.414 87.0147 123.912 87.2286C117.209 90.1084 117.209 90.1084 111.275 94.2822C111.452 94.6478 111.63 95.0134 111.813 95.3901C114.976 102.456 115.292 109.421 112.558 116.691C109.637 123.009 105.01 127.666 98.4448 130.136C93.5479 131.663 88.8299 131.93 83.8309 130.766C83.3211 130.648 82.8113 130.531 82.2861 130.41C81.9028 130.319 81.5195 130.229 81.1246 130.136C81.2535 136.713 81.4267 143.193 82.9288 149.623C83.027 150.057 83.1252 150.491 83.2264 150.938C84.3099 155.196 86.6341 158.148 89.5843 161.307C91.6505 163.555 93.6122 165.845 95.518 168.23C97.9554 171.24 100.582 173.952 103.356 176.653C104.706 178 105.953 179.381 107.185 180.834C109.412 183.416 111.878 185.562 114.482 187.757C117.315 190.189 120.136 192.637 122.956 195.085C123.973 195.966 124.994 196.842 126.016 197.718C131.527 202.519 135.976 207.685 137.375 215.047C138.475 217.87 140.09 218.796 142.505 220.529C147.403 224.355 150.885 230.935 151.688 237.055C152.376 246.055 150.976 253.339 145.316 260.506C140.313 266.236 133.722 269.916 126.041 270.563C116.917 270.758 109.548 268.836 102.692 262.545C98.9853 258.741 96.9498 254.858 95.2374 249.86C94.855 249.851 94.4726 249.841 94.0786 249.832C69.4816 249.17 40.6031 246.73 21.4663 229.372C20.8792 228.846 20.292 228.319 19.6871 227.777C8.54862 217.269 4.62742 203.874 3.83537 188.985C3.79767 188.283 3.79767 188.283 3.75921 187.567C3.63613 185.205 3.52931 182.844 3.4465 180.48C3.2352 175.337 2.55891 170.665 1.20114 165.697C0.289904 162.317 -0.0864269 159.232 0.0165146 155.745C0.0254557 155.21 0.0343967 154.675 0.0436087 154.124C0.7075 131.438 15.8297 107.941 31.9305 92.5491C37.737 87.6047 44.3227 84.3437 51.2649 81.2936C58.9292 77.8425 64.6657 72.2947 69.8585 65.7916C76.8482 57.2193 85.4417 52.8201 95.8789 49.4656C95.7772 49.1429 95.6754 48.8202 95.5706 48.4877C94.0828 41.4203 94.9976 34.2309 98.748 28.0651C102.354 23.0025 107.319 19.2632 113.392 17.7313C121.026 16.5074 127.94 17.5374 134.26 22.0704ZM174.258 51.5138C171.436 55.7993 170.907 59.8078 171.574 64.8313C173.026 69.5538 175.785 73.0253 179.914 75.7153C184.061 77.9102 188.217 78.1219 192.744 76.9958C198.462 74.6851 201.417 70.9272 203.889 65.4315C204.963 60.3937 204.205 56.516 201.724 52.0265C199.099 48.4628 195.751 46.1142 191.461 44.9839C184.557 43.9969 178.543 45.8559 174.258 51.5138ZM75.9927 97.4834C73.4748 101.987 72.5427 106.254 73.8503 111.274C75.6057 116.294 78.4605 119.659 83.2095 122.093C87.5639 123.8 92.0056 123.8 96.36 122.093C100.823 119.814 103.89 116.475 105.719 111.814C106.977 107.282 106.339 103.22 104.421 98.9715C102.038 94.7723 98.8345 92.4426 94.3002 90.8634C87.2766 89.0409 80.2473 91.5815 75.9927 97.4834ZM55.7257 194.047C53.1275 198.059 52.2272 202.354 53.1773 207.062C54.3886 211.454 56.7918 214.943 60.6572 217.433C64.8676 219.612 69.063 220.568 73.745 219.354C78.7884 217.561 82.1578 214.777 84.6127 210.005C86.2647 205.834 86.2668 201.409 84.8533 197.16C82.8253 192.535 79.4305 189.695 74.9102 187.597C67.1514 185.844 60.7477 187.77 55.7257 194.047Z" fill="#9D9D9D"/>
<path d="M265.793 25.8968C271.211 30.5485 274.744 35.8611 275.495 43.0632C275.977 50.0309 274.148 56.2108 269.722 61.6301C269.392 62.0386 269.062 62.4471 268.722 62.868C265.111 66.8877 259.492 69.7602 254.066 70.0832C248.718 70.1827 244.031 69.8443 238.931 68.0325C238.473 68.5739 238.016 69.1153 237.545 69.6731C237.249 70.0224 236.954 70.3718 236.649 70.7317C236.002 71.4973 235.355 72.2633 234.708 73.0298C232.96 75.0972 231.182 77.1232 229.348 79.1166C227.321 81.4143 226.052 83.8128 224.818 86.5994C223.35 89.8888 222.217 92.3036 219.045 94.2822C216.694 95.0768 214.332 95.0348 211.868 95.1225C207.804 95.3354 204.596 96.0477 201.083 98.1236C200.355 98.5462 199.627 98.9688 198.878 99.4041C197.206 100.706 196.705 101.327 195.951 103.246C195.816 104.615 195.816 104.615 195.916 106.049C195.934 106.583 195.951 107.117 195.97 107.667C195.99 108.228 196.01 108.789 196.031 109.368C196.136 115.963 195.462 120.877 191.02 126.014C190.633 126.411 190.247 126.808 189.849 127.217C188.143 129 187.995 130.607 188.03 133.041C188.5 136.359 190.094 139.329 191.501 142.34C191.82 143.045 192.14 143.75 192.47 144.476C194.619 149.194 196.813 153.894 199.066 158.564C199.8 160.227 199.8 160.227 199.8 161.507C200.514 161.296 201.229 161.085 201.965 160.867C208.622 159.261 215.192 160.277 221.2 163.633C226.869 167.646 231.186 173.167 232.516 180.074C233.082 187.864 232.245 194.506 227.136 200.707C222.819 205.443 217.792 208.639 211.239 209.172C203.464 209.506 197.511 207.932 191.38 202.983C190.169 201.834 189.211 200.644 188.253 199.281C184.535 200.793 182.867 204.121 181.197 207.604C178.103 215.036 175.924 222.603 175.423 230.653C175.356 231.67 175.356 231.67 175.288 232.709C174.934 243.72 177.41 255.051 185.046 263.305C191.91 270.608 201.444 274.672 211.427 275.149C222.979 274.858 234.509 271.431 245.521 268.202C260.254 263.9 260.254 263.9 267.798 267.146C270.256 268.687 272.38 270.59 274.562 272.492C275.282 273.118 276.004 273.742 276.726 274.364C277.437 274.978 278.144 275.598 278.844 276.225C281.741 278.745 284.566 280.34 288.445 280.872C290.734 280.516 291.409 279.835 292.816 278.03C294.987 274.359 295.127 269.833 294.349 265.718C293.888 264.038 293.39 262.389 292.816 260.744C290.838 260.305 289.253 260.11 287.203 260.144C279.678 260.214 274.014 257.136 268.612 252.101C266.409 249.678 265.119 247.132 263.949 244.098C263.671 243.398 263.393 242.698 263.107 241.977C261.789 234.923 262.444 228.189 266.221 221.985C269.966 216.871 274.993 212.85 281.269 211.446C289.015 210.585 295.468 211.284 301.957 215.807C306.798 219.704 310.235 224.453 311.419 230.653C311.981 238.384 311.157 244.989 306.154 251.188C304.009 253.488 301.644 255.53 299.23 257.543C299.416 258.047 299.601 258.551 299.792 259.071C302.277 266.35 303.036 273.388 299.872 280.591C298.383 283.421 296.518 285.745 293.59 287.209C289.255 288.511 284.62 288.258 280.507 286.394C277.541 284.703 275.144 282.513 272.671 280.179C267.96 275.915 264.066 272.678 257.646 272.743C254.064 273.034 250.762 274.151 247.35 275.229C240.85 277.181 234.393 278.857 227.745 280.231C226.998 280.389 226.251 280.547 225.481 280.709C212.339 283.356 199.881 282.605 188.213 275.565C186.435 274.327 184.773 273.028 183.121 271.628C182.614 271.201 182.107 270.775 181.585 270.335C173.228 262.676 168.856 251.157 168.288 239.988C167.777 223.622 170.391 206.443 182.009 194.017C182.802 193.205 183.601 192.4 184.404 191.598C184.187 190.085 184.187 190.085 183.763 188.397C183.127 181.235 184.485 174.77 189.113 169.135C189.464 168.731 189.815 168.326 190.178 167.91C190.735 167.245 191.292 166.579 191.848 165.912C192.355 165.304 192.862 164.695 193.385 164.068C191.996 161.017 190.604 157.966 189.211 154.916C188.739 153.882 188.268 152.848 187.797 151.813C181.734 136.969 181.734 136.969 169.61 127.294C165.77 125.456 162.671 123.776 160.669 119.892C159.851 117.305 159.205 114.728 158.632 112.079C157.561 107.11 157.561 107.11 154.695 103.005C151.202 100.897 148.387 100.381 144.369 100.9C139.639 102.11 135.728 105.645 133.085 109.648C127.191 119.921 124.431 130.542 127.312 142.3C129.042 147.886 131.918 154.273 137.225 157.276C139.285 157.768 140.021 157.382 141.906 156.465C147.646 154.186 154.66 154.018 160.469 156.225C167.378 159.568 171.893 163.997 174.782 171.111C176.705 176.735 176.044 184.685 173.699 190.048C170.116 196.647 164.955 200.903 157.702 203.083C150.344 204.773 143.859 203.57 137.348 199.806C131.729 195.947 128.488 190.353 126.791 183.835C126.751 183.228 126.711 182.621 126.67 181.995C126.622 181.37 126.622 181.37 126.573 180.732C126.264 173.749 128.921 168.03 132.444 162.147C131.887 161.92 131.887 161.92 131.319 161.687C125.14 158.17 121.762 149.651 119.972 143.123C117.142 131.567 119.548 119.524 124.746 109.008C126.286 106.496 127.977 104.215 129.878 101.965C130.241 101.531 130.604 101.097 130.978 100.65C134.678 96.6 139.705 93.9426 145.198 93.4894C150.929 93.3585 155.442 94.0086 159.947 97.7235C160.397 98.2781 160.847 98.8327 161.311 99.4041C161.76 99.9455 162.21 100.487 162.674 101.045C164.39 104.185 165.011 107.459 165.801 110.928C166.08 112.106 166.373 113.28 166.683 114.45C166.807 114.945 166.931 115.44 167.059 115.95C168.674 119.295 172.295 120.689 175.504 122.213C177.696 123.268 179.807 124.302 181.838 125.654C182.788 124.409 183.73 123.16 184.662 121.902C185.476 120.815 186.318 119.749 187.171 118.691C189.661 114.088 188.925 108.518 188.729 103.436C189.015 99.7852 190.859 96.8677 193.385 94.2822C198.385 90.7901 203.087 88.3958 209.228 88.4177C213.694 88.4298 213.694 88.4298 217.403 86.2955C218.726 84.2085 219.575 81.9684 220.468 79.6743C221.775 76.3379 223.946 74.1223 226.437 71.5863C228.882 69.0727 231.006 66.3152 233.157 63.5508C232.855 63.1018 232.554 62.6529 232.243 62.1903C231.843 61.5829 231.444 60.9754 231.032 60.3496C230.638 59.7554 230.243 59.1612 229.837 58.5489C227.421 54.3358 226.38 50.6389 226.422 45.7842C226.428 45.0304 226.428 45.0304 226.434 44.2613C226.637 37.7707 228.962 32.437 233.468 27.725C242.783 20.175 255.779 18.5879 265.793 25.8968ZM138.52 168.567C135.276 172.904 134.235 177.267 135.01 182.635C136.452 187.381 138.714 190.884 143.068 193.359C147.043 195.473 150.421 195.943 154.896 195.44C160.093 193.833 163.911 190.586 166.503 185.829C168.406 181.352 168.173 177.041 166.508 172.544C164.269 168.004 160.849 165.221 156.179 163.428C149.703 161.273 143.006 163.582 138.52 168.567ZM274.854 224.251C271.26 229.289 270.389 233.409 271.005 239.616C272.511 244.562 275.39 248.048 279.906 250.518C284.053 252.328 288.586 252.458 292.896 251.1C297.227 249.228 300.759 245.98 302.638 241.642C304.166 236.843 304.052 232.618 301.796 228.092C299.295 223.958 296.542 221.312 291.934 219.609C285.679 218.317 279.459 219.523 274.854 224.251Z" fill="#9D9D9D"/>
</svg>
